<?xml version="1.0" standalone="no"?>
<!DOCTYPE svg PUBLIC "-//W3C//DTD SVG 20010904//EN"
 "http://www.w3.org/TR/2001/REC-SVG-20010904/DTD/svg10.dtd">
<svg version="1.0" xmlns="http://www.w3.org/2000/svg"
 width="320.000000pt" height="320.000000pt" viewBox="0 0 320.000000 320.000000"
 preserveAspectRatio="xMidYMid meet">
<metadata>
Created by potrace 1.11, written by Peter Selinger 2001-2013
</metadata>
<g transform="translate(0.000000,320.000000) scale(0.100000,-0.100000)"
fill="#000000" stroke="none">
<path d="M1032 2756 c-77 -29 -121 -58 -199 -130 -88 -82 -103 -122 -118 -327
-11 -142 -16 -175 -38 -223 -48 -104 -62 -276 -31 -381 18 -65 93 -213 156
-310 92 -143 148 -192 431 -375 87 -57 169 -120 226 -175 48 -47 91 -85 95
-85 3 0 6 7 6 15 0 10 10 15 31 15 20 0 28 4 23 12 -5 8 -2 9 12 4 10 -4 32
-9 47 -11 28 -4 29 -4 22 35 -9 52 10 53 64 5 46 -42 66 -45 57 -10 -8 32 15
43 55 28 32 -13 69 -7 69 11 0 12 40 42 53 38 4 -1 7 3 7 9 0 6 9 8 21 4 16
-5 22 -2 26 15 5 17 12 21 37 19 40 -4 53 5 71 47 13 32 35 47 35 24 0 -18 22
-10 27 9 3 12 11 17 19 14 8 -3 14 -1 14 5 0 6 10 8 22 4 14 -3 19 -2 14 7 -4
6 -12 8 -18 5 -8 -5 -8 2 -3 22 4 16 8 34 8 39 0 18 -43 148 -74 225 -61 150
-72 191 -59 234 11 36 14 174 5 236 -2 14 -4 44 -4 68 -1 24 -4 41 -8 39 -5
-3 -9 10 -10 28 -1 18 -13 58 -27 89 -14 31 -26 60 -26 64 0 13 -51 105 -92
164 -91 135 -210 224 -483 362 -64 33 -175 113 -175 127 0 15 -74 29 -150 28
-53 0 -93 -7 -138 -23z m414 -689 c86 -58 118 -81 156 -111 22 -16 44 -26 53
-22 10 4 30 -8 54 -32 48 -48 91 -84 91 -76 0 4 9 -5 20 -19 11 -14 20 -34 20
-44 0 -10 8 -26 18 -35 39 -36 52 -63 52 -109 0 -26 -6 -54 -12 -61 -7 -7 -15
-24 -16 -38 -2 -14 -7 -29 -12 -35 -4 -5 -10 -26 -14 -45 -7 -42 -60 -110 -85
-110 -10 0 -30 -9 -44 -20 -14 -11 -28 -20 -32 -20 -3 0 -21 -11 -38 -24 -67
-51 -172 -60 -253 -22 -42 19 -54 31 -67 65 -10 23 -35 79 -57 125 -22 46 -42
96 -44 112 -4 33 -16 64 -55 149 -16 33 -31 83 -35 110 -3 28 -10 69 -15 92
-11 56 2 73 59 78 81 5 99 14 122 59 11 22 25 47 30 54 17 21 54 13 104 -21z
m451 -579 c-3 -8 -6 -5 -6 6 -1 11 2 17 5 13 3 -3 4 -12 1 -19z m353 -418 c0
-5 -2 -10 -4 -10 -3 0 -8 5 -11 10 -3 6 -1 10 4 10 6 0 11 -4 11 -10z m-112
-102 c-3 -7 -13 -15 -24 -17 -16 -3 -17 -1 -5 13 16 19 34 21 29 4z"/>
<path d="M1541 1887 c-8 -10 -7 -21 2 -40 10 -21 17 -25 37 -20 62 14 55 35
-21 70 -4 1 -12 -3 -18 -10z"/>
<path d="M1289 1699 l-21 -21 22 -23 c19 -20 26 -22 46 -13 26 12 32 46 12 66
-17 17 -35 15 -59 -9z"/>
<path d="M2160 959 c0 -5 5 -7 10 -4 6 3 10 8 10 11 0 2 -4 4 -10 4 -5 0 -10
-5 -10 -11z"/>
<path d="M2310 850 c0 -26 -37 -59 -49 -43 -6 9 -47 33 -56 33 -3 0 -5 -7 -5
-16 0 -9 -6 -14 -13 -11 -9 3 -14 -5 -15 -25 -1 -16 -10 -37 -19 -46 -16 -16
-16 -16 -10 1 4 10 2 17 -6 18 -7 0 -29 2 -50 4 -35 4 -38 2 -44 -26 -4 -20
-11 -29 -22 -27 -9 1 -21 -1 -28 -5 -6 -4 -30 -8 -52 -9 -23 -1 -41 -6 -42
-12 -4 -58 -21 -74 -48 -47 -26 26 -30 26 -25 4 8 -34 -9 -45 -54 -35 -27 7
-41 6 -39 0 3 -14 -36 -20 -44 -7 -3 5 -13 7 -22 3 -9 -3 -15 -9 -13 -13 3 -4
0 -13 -6 -21 -8 -12 -9 -12 -4 2 7 24 -30 34 -50 13 -15 -15 -15 -17 1 -35 10
-11 15 -28 12 -40 -3 -11 3 -37 13 -58 9 -20 25 -68 35 -107 10 -38 21 -74 25
-80 4 -5 8 -53 9 -105 1 -52 4 -110 8 -127 l5 -33 749 0 c707 0 749 1 749 18
0 9 -19 29 -43 44 -23 15 -71 53 -106 85 -35 32 -68 58 -72 58 -5 0 -10 4 -11
9 -2 5 -20 26 -40 47 -23 24 -35 44 -32 54 4 8 1 15 -6 15 -6 0 -8 -4 -5 -10
14 -23 -10 -7 -54 38 -27 26 -59 55 -72 64 -15 11 -17 15 -6 12 26 -9 20 11
-8 26 -14 7 -25 17 -25 22 0 5 -4 6 -10 3 -6 -3 -10 4 -10 17 0 17 -3 19 -9 9
-6 -9 -11 -10 -15 -2 -4 6 -11 9 -16 6 -5 -3 -18 8 -30 25 -12 16 -16 30 -10
30 6 0 8 5 5 10 -4 6 -11 7 -17 4 -6 -4 -9 -1 -6 7 3 8 -4 22 -14 31 -11 9
-17 22 -13 27 3 6 -4 15 -17 20 -13 5 -30 17 -38 27 -13 16 -11 16 9 -1 17
-14 25 -16 28 -7 3 6 10 10 16 6 7 -3 5 1 -3 8 -8 8 -21 20 -29 28 -12 13 -13
13 -8 -3 4 -11 3 -16 -4 -12 -6 4 -8 13 -5 21 3 8 -12 32 -32 54 -31 34 -45
42 -82 45 -63 5 -73 8 -87 25 -11 13 -12 11 -13 -10z"/>
<path d="M2410 866 c0 -2 8 -10 18 -17 15 -13 16 -12 3 4 -13 16 -21 21 -21
13z"/>
</g>
</svg>
